<?xml version="1.0"?>
<svg id="Layer_1" style="enable-background:new 0 0 32 32;" version="1.1" viewBox="0 0 32 32" xml:space="preserve" xmlns="http://www.w3.org/2000/svg" xmlns:xlink="http://www.w3.org/1999/xlink">
	<style type="text/css">
	.st0{fill:none;}
</style>
	<title />
	<g id="TWITTER">
		<rect class="st0" height="32" id="Frame" width="32" />
		<path d="M16,2C8.3,2,2,8.3,2,16s6.3,14,14,14s14-6.3,14-14S23.7,2,16,2z M23.5,12.7c-0.1,0-0.1,0.1-0.2,0.1l0,0   c0,0.5,0,1-0.1,1.5l0,0c-0.9,5.6-6.2,9.5-11.8,8.7c-1.6-0.2-3.1-0.8-4.4-1.8c0.6,0.2,1.2,0.3,1.8,0.3c1.6,0,3.1-0.6,4.3-1.7   c-1.1-0.1-2.2-0.6-2.9-1.5c0.7,0,1.3-0.4,1.7-0.9c-1-0.1-1.8-0.7-2.4-1.4c-0.4-0.5-0.6-1.1-0.7-1.7c0-0.1,0-0.3,0-0.4   c0-0.1,0.1,0,0.2,0.1c0.3,0.1,0.6,0.2,0.9,0.3c0.1,0,0.1,0,0.2,0h0.1c-0.1-0.1-0.2-0.1-0.2-0.2c-0.1-0.1-0.2-0.2-0.3-0.3   c-0.4-0.4-0.6-0.9-0.8-1.4c-0.3-0.7-0.3-1.5,0-2.3l0,0c0-0.1,0-0.2,0.1-0.2c0,0,0,0,0,0.1l0,0c0.3,0.3,0.6,0.6,0.9,0.8   c0.7,0.6,1.5,1.1,2.4,1.5h0.1c0.7,0.3,1.5,0.6,2.3,0.7c0.4,0.1,0.7,0.1,1.1,0.1h0.1l0,0V13c0-0.1,0-0.2,0-0.2c0-0.3,0-0.6,0.1-0.8   c0.1-0.3,0.2-0.7,0.4-1l0,0c0.3-0.5,0.7-0.9,1.1-1.3C18,9.3,18.6,9,19.2,9c0.1,0,0.2,0,0.2,0c0.1,0,0.1,0,0.2,0   c1.1,0,2.1,0.5,2.8,1.2c0.2,0,0.3,0,0.5-0.1c0.7-0.2,1.4-0.6,1.9-1.1c-0.5,0.7-1.1,1.3-1.8,1.9L22.9,11l-0.1,0.1c0.1,0,0.1,0,0.2,0   h0.1c0.7-0.1,1.3-0.3,1.9-0.7C24.8,11.3,24.3,12.1,23.5,12.7z" id="Twitter-2" />
	</g>
</svg>